<svg width="70" height="70" viewBox="0 0 70 70" fill="none" xmlns="http://www.w3.org/2000/svg">
<path d="M17.5 21.8757V21.0007C17.5 17.7337 17.5 16.099 18.1358 14.8512C18.6951 13.7535 19.5868 12.8618 20.6844 12.3025C21.9322 11.6667 23.5669 11.6667 26.8339 11.6667H51.9172C55.1842 11.6667 56.8154 11.6667 58.0632 12.3025C59.1609 12.8618 60.0556 13.7535 60.6148 14.8512C61.25 16.0978 61.25 17.7305 61.25 20.9911V40.2591C61.25 43.5197 61.25 45.15 60.6148 46.3966C60.0556 47.4943 59.1614 48.389 58.0638 48.9482C56.8172 49.5834 55.1863 49.5834 51.9257 49.5834H30.625M8.75 49.0007V32.6673C8.75 29.4003 8.75 27.7656 9.3858 26.5178C9.94506 25.4202 10.8368 24.5285 11.9344 23.9692C13.1822 23.3334 14.8169 23.3334 18.0839 23.3334H19.8339C23.1009 23.3334 24.7321 23.3334 25.9799 23.9692C27.0775 24.5285 27.9722 25.4202 28.5315 26.5178C29.1667 27.7644 29.1667 29.3972 29.1667 32.6577V49.0091C29.1667 52.2697 29.1667 53.9 28.5315 55.1466C27.9722 56.2443 27.0775 57.139 25.9799 57.6982C24.7333 58.3334 23.1029 58.3334 19.8423 58.3334H18.0743C14.8137 58.3334 13.181 58.3334 11.9344 57.6982C10.8368 57.139 9.94506 56.2443 9.3858 55.1466C8.75 53.8988 8.75 52.2676 8.75 49.0007Z" stroke="#4EB855" stroke-width="5" stroke-linecap="round" stroke-linejoin="round"/>
</svg>
