<svg width="70" height="70" viewBox="0 0 70 70" fill="none" xmlns="http://www.w3.org/2000/svg">
<path d="M26.25 49.5833H43.75M26.25 40.8333H43.75M37.9177 8.75254C37.6391 8.75 37.3257 8.75 36.9679 8.75H23.9172C20.6502 8.75 19.0155 8.75 17.7677 9.3858C16.6701 9.94506 15.7784 10.8368 15.2191 11.9344C14.5833 13.1822 14.5833 14.8169 14.5833 18.0839V51.9172C14.5833 55.1842 14.5833 56.8168 15.2191 58.0647C15.7784 59.1623 16.6701 60.0556 17.7677 60.6148C19.0143 61.25 20.6471 61.25 23.9077 61.25L46.0923 61.25C49.3529 61.25 50.9833 61.25 52.2299 60.6148C53.3275 60.0556 54.2222 59.1623 54.7815 58.0647C55.4166 56.8181 55.4166 55.1877 55.4166 51.9271V27.1999C55.4166 26.8421 55.4163 26.5286 55.4138 26.25M37.9177 8.75254C38.7503 8.76014 39.275 8.79103 39.778 8.91179C40.3732 9.05469 40.9437 9.29035 41.4656 9.61019C42.0541 9.97082 42.5594 10.4761 43.5677 11.4844L52.6837 20.6004C53.6926 21.6093 54.1942 22.1123 54.5549 22.701C54.8748 23.2229 55.1114 23.792 55.2543 24.3872C55.3751 24.8902 55.4062 25.4174 55.4138 26.25M37.9177 8.75254L37.9166 16.9173C37.9166 20.1842 37.9166 21.8171 38.5524 23.0649C39.1117 24.1625 40.0034 25.0556 41.1011 25.6148C42.3476 26.25 43.9804 26.25 47.241 26.25H55.4138" stroke="#4EB855" stroke-width="5" stroke-linecap="round" stroke-linejoin="round"/>
</svg>
