<svg width="70" height="70" viewBox="0 0 70 70" fill="none" xmlns="http://www.w3.org/2000/svg">
<path d="M40.8333 52.4999H61.25M8.75 52.4999H14.5833M14.5833 52.4999C14.5833 56.527 17.8479 59.7916 21.875 59.7916C25.9021 59.7916 29.1667 56.527 29.1667 52.4999C29.1667 48.4728 25.9021 45.2083 21.875 45.2083C17.8479 45.2083 14.5833 48.4728 14.5833 52.4999ZM58.3333 34.9999H61.25M8.75 34.9999H29.1667M37.9167 17.4999H61.25M37.9167 17.4999C37.9167 13.4728 34.6521 10.2083 30.625 10.2083C26.5979 10.2083 23.3333 13.4728 23.3333 17.4999C23.3333 21.527 26.5979 24.7916 30.625 24.7916C34.6521 24.7916 37.9167 21.527 37.9167 17.4999ZM8.75 17.4999H11.6667M48.125 42.2916C44.0979 42.2916 40.8333 39.027 40.8333 34.9999C40.8333 30.9728 44.0979 27.7083 48.125 27.7083C52.1521 27.7083 55.4167 30.9728 55.4167 34.9999C55.4167 39.027 52.1521 42.2916 48.125 42.2916Z" stroke="#4EB855" stroke-width="5" stroke-linecap="round" stroke-linejoin="round"/>
</svg>
