<svg width="70" height="70" viewBox="0 0 70 70" fill="none" xmlns="http://www.w3.org/2000/svg">
<path d="M17.5 52.4999C17.6857 52.5 17.877 52.5 18.0743 52.5H35M17.5 52.4999C14.6175 52.4977 13.1056 52.4616 11.9344 51.8648C10.8368 51.3056 9.94506 50.4108 9.3858 49.3132C8.75 48.0654 8.75 46.4342 8.75 43.1672V26.8339C8.75 23.5669 8.75 21.9322 9.3858 20.6844C9.94506 19.5868 10.8368 18.6951 11.9344 18.1358C13.1822 17.5 14.8169 17.5 18.0839 17.5H51.9172C55.1842 17.5 56.8154 17.5 58.0632 18.1358C59.1609 18.6951 60.0556 19.5868 60.6148 20.6844C61.25 21.931 61.25 23.5637 61.25 26.8243V43.1757C61.25 46.4363 61.25 48.0666 60.6148 49.3132C60.0556 50.4108 59.1609 51.3056 58.0632 51.8648C56.8166 52.5 55.1863 52.5 51.9257 52.5H35M17.5 52.4999C17.5001 49.2783 21.4176 46.6667 26.25 46.6667C31.0825 46.6667 35 49.2783 35 52.5M17.5 52.4999C17.5 52.4999 17.5 52.4998 17.5 52.4999ZM52.5 40.8333H40.8333M52.5 32.0833H43.75M26.25 37.9167C23.0283 37.9167 20.4167 35.305 20.4167 32.0833C20.4167 28.8617 23.0283 26.25 26.25 26.25C29.4717 26.25 32.0833 28.8617 32.0833 32.0833C32.0833 35.305 29.4717 37.9167 26.25 37.9167Z" stroke="#4EB855" stroke-width="5" stroke-linecap="round" stroke-linejoin="round"/>
</svg>
