<svg width="21" height="21" viewBox="0 0 21 21" fill="none" xmlns="http://www.w3.org/2000/svg">
<path d="M4.65176 17.0086C5.18404 15.7546 6.42681 14.875 7.875 14.875H13.125C14.5732 14.875 15.816 15.7546 16.3482 17.0086M14 8.3125C14 10.2455 12.433 11.8125 10.5 11.8125C8.567 11.8125 7 10.2455 7 8.3125C7 6.3795 8.567 4.8125 10.5 4.8125C12.433 4.8125 14 6.3795 14 8.3125ZM19.25 10.5C19.25 15.3325 15.3325 19.25 10.5 19.25C5.66751 19.25 1.75 15.3325 1.75 10.5C1.75 5.66751 5.66751 1.75 10.5 1.75C15.3325 1.75 19.25 5.66751 19.25 10.5Z" stroke="black" stroke-width="2" stroke-linecap="round" stroke-linejoin="round"/>
</svg>
